<?xml version="1.0" encoding="utf-8"?>
<!-- Generator: Adobe Illustrator 16.0.0, SVG Export Plug-In . SVG Version: 6.00 Build 0)  -->
<!DOCTYPE svg PUBLIC "-//W3C//DTD SVG 1.1//EN" "http://www.w3.org/Graphics/SVG/1.1/DTD/svg11.dtd">
<svg version="1.1" id="Warstwa_1" xmlns="http://www.w3.org/2000/svg" xmlns:xlink="http://www.w3.org/1999/xlink" x="0px" y="0px"
	 width="169.5px" height="36px" viewBox="0 0 169.5 36" enable-background="new 0 0 169.5 36" xml:space="preserve">
<g>
	<path fill="#FFFFFF" d="M53.838,19.04h-5.519v5.701h-2.874v-13.95h9.083v2.328h-6.208v3.602h5.519V19.04z"/>
	<path fill="#FFFFFF" d="M61.694,24.741c-0.127-0.249-0.22-0.559-0.277-0.929c-0.671,0.746-1.543,1.121-2.616,1.121
		c-1.016,0-1.857-0.294-2.524-0.883c-0.667-0.587-1.001-1.328-1.001-2.223c0-1.098,0.407-1.941,1.221-2.528
		c0.815-0.589,1.992-0.885,3.531-0.891h1.274v-0.595c0-0.479-0.123-0.862-0.369-1.149c-0.246-0.288-0.634-0.432-1.165-0.432
		c-0.466,0-0.832,0.112-1.097,0.335c-0.265,0.224-0.397,0.53-0.397,0.92h-2.769c0-0.601,0.185-1.156,0.556-1.667
		c0.371-0.511,0.895-0.912,1.571-1.202c0.677-0.291,1.437-0.436,2.28-0.436c1.277,0,2.292,0.321,3.042,0.963
		c0.751,0.642,1.126,1.543,1.126,2.706v4.493c0.006,0.983,0.144,1.728,0.412,2.231v0.164H61.694z M59.404,22.814
		c0.409,0,0.786-0.09,1.131-0.272c0.344-0.182,0.6-0.427,0.766-0.733v-1.781h-1.035c-1.386,0-2.124,0.479-2.213,1.438l-0.009,0.163
		c0,0.344,0.122,0.629,0.364,0.852C58.651,22.704,58.983,22.814,59.404,22.814z"/>
	<path fill="#FFFFFF" d="M68.803,14.375l0.087,1.159c0.733-0.9,1.728-1.351,2.979-1.351c1.335,0,2.252,0.527,2.751,1.581
		c0.728-1.053,1.765-1.581,3.112-1.581c1.125,0,1.962,0.328,2.511,0.982c0.55,0.654,0.824,1.64,0.824,2.956v6.62h-2.778V18.13
		c0-0.588-0.115-1.017-0.346-1.289s-0.635-0.407-1.216-0.407c-0.83,0-1.406,0.396-1.726,1.188l0.011,7.118h-2.771V18.14
		c0-0.601-0.117-1.035-0.354-1.303c-0.237-0.268-0.64-0.402-1.208-0.402c-0.786,0-1.354,0.326-1.705,0.978v7.329h-2.769V14.375
		H68.803z"/>
	<path fill="#FFFFFF" d="M83.174,11.692c0-0.416,0.139-0.757,0.416-1.025c0.277-0.268,0.658-0.402,1.138-0.402
		c0.472,0,0.85,0.134,1.129,0.402c0.282,0.269,0.422,0.61,0.422,1.025c0,0.422-0.143,0.766-0.428,1.035
		c-0.284,0.269-0.657,0.402-1.123,0.402c-0.467,0-0.844-0.134-1.128-0.402S83.174,12.114,83.174,11.692z M86.115,24.741h-2.777
		V14.375h2.777V24.741z"/>
	<path fill="#FFFFFF" d="M91.317,24.741h-2.776V10.025h2.776V24.741z"/>
	<path fill="#FFFFFF" d="M97.47,20.823l1.915-6.448h2.97l-4.167,11.976l-0.23,0.546c-0.619,1.354-1.642,2.031-3.064,2.031
		c-0.403,0-0.813-0.061-1.227-0.182v-2.099l0.422,0.01c0.522,0,0.913-0.08,1.171-0.239c0.259-0.16,0.465-0.425,0.61-0.796
		l0.325-0.853l-3.631-10.395h2.98L97.47,20.823z"/>
	<path fill="#FFFFFF" d="M107.951,20.986c0-0.646,0.179-1.242,0.539-1.793c0.36-0.549,1.024-1.159,1.989-1.829
		c-0.416-0.556-0.741-1.078-0.978-1.567s-0.354-0.998-0.354-1.528c0-1.086,0.342-1.969,1.028-2.649c0.688-0.68,1.61-1.02,2.772-1.02
		c1.041,0,1.896,0.31,2.565,0.929c0.666,0.62,0.999,1.393,0.999,2.319c0,1.111-0.562,2.092-1.687,2.941l-1.073,0.776l2.406,2.798
		c0.377-0.74,0.563-1.56,0.563-2.453h2.357c0,1.813-0.418,3.283-1.255,4.407l2.09,2.424h-3.143l-0.72-0.824
		c-1.029,0.677-2.21,1.017-3.544,1.017c-1.379,0-2.483-0.363-3.314-1.088C108.364,23.12,107.951,22.167,107.951,20.986z
		 M112.643,22.699c0.665,0,1.294-0.183,1.889-0.553l-2.748-3.173l-0.201,0.143c-0.568,0.484-0.854,1.056-0.854,1.712
		c0,0.553,0.177,1.005,0.53,1.352C111.612,22.527,112.075,22.699,112.643,22.699z M111.629,14.231c0,0.479,0.279,1.083,0.842,1.811
		l0.738-0.489c0.376-0.243,0.64-0.479,0.781-0.708c0.144-0.23,0.214-0.505,0.214-0.825s-0.117-0.597-0.354-0.833
		c-0.236-0.236-0.539-0.354-0.909-0.354c-0.397,0-0.714,0.127-0.952,0.383C111.748,13.471,111.629,13.81,111.629,14.231z"/>
	<path fill="#FFFFFF" d="M134.67,19.04h-5.519v5.701h-2.876v-13.95h9.084v2.328h-6.208v3.602h5.519V19.04z"/>
	<path fill="#FFFFFF" d="M136.213,19.462c0-1.028,0.197-1.944,0.592-2.749c0.397-0.805,0.967-1.428,1.712-1.868
		c0.744-0.441,1.608-0.662,2.591-0.662c1.399,0,2.541,0.428,3.425,1.284c0.885,0.855,1.378,2.018,1.481,3.487l0.019,0.71
		c0,1.59-0.444,2.865-1.331,3.827c-0.889,0.961-2.079,1.442-3.575,1.442c-1.495,0-2.686-0.479-3.578-1.438
		c-0.891-0.959-1.335-2.261-1.335-3.909V19.462z M138.981,19.658c0,0.985,0.185,1.739,0.555,2.26c0.37,0.522,0.901,0.781,1.59,0.781
		c0.671,0,1.195-0.257,1.572-0.771c0.376-0.515,0.565-1.34,0.565-2.471c0-0.967-0.189-1.715-0.565-2.246
		c-0.377-0.531-0.907-0.797-1.591-0.797c-0.676,0-1.201,0.264-1.571,0.792S138.981,18.552,138.981,19.658z"/>
	<path fill="#FFFFFF" d="M147.306,19.462c0-1.028,0.199-1.944,0.594-2.749c0.397-0.805,0.967-1.428,1.712-1.868
		c0.742-0.441,1.606-0.662,2.592-0.662c1.398,0,2.54,0.428,3.424,1.284c0.885,0.855,1.379,2.018,1.479,3.487l0.021,0.71
		c0,1.59-0.444,2.865-1.333,3.827c-0.887,0.961-2.077,1.442-3.573,1.442c-1.495,0-2.688-0.479-3.578-1.438
		c-0.891-0.959-1.337-2.261-1.337-3.909V19.462z M150.076,19.658c0,0.985,0.185,1.739,0.555,2.26c0.37,0.522,0.901,0.781,1.59,0.781
		c0.671,0,1.195-0.257,1.572-0.771c0.376-0.515,0.565-1.34,0.565-2.471c0-0.967-0.189-1.715-0.565-2.246
		c-0.377-0.531-0.907-0.797-1.59-0.797c-0.68,0-1.202,0.264-1.572,0.792S150.076,18.552,150.076,19.658z"/>
	<path fill="#FFFFFF" d="M158.4,19.48c0-1.615,0.363-2.902,1.088-3.86c0.724-0.958,1.717-1.438,2.974-1.438
		c1.011,0,1.843,0.377,2.501,1.131v-5.289h2.779v14.716h-2.501l-0.134-1.102c-0.691,0.862-1.578,1.294-2.664,1.294
		c-1.22,0-2.198-0.481-2.937-1.442C158.771,22.529,158.4,21.193,158.4,19.48z M161.168,19.688c0,0.972,0.171,1.719,0.509,2.234
		c0.339,0.521,0.831,0.777,1.477,0.777c0.855,0,1.458-0.36,1.81-1.084v-4.096c-0.345-0.723-0.941-1.084-1.791-1.084
		C161.837,16.435,161.168,17.519,161.168,19.688z"/>
</g>
<g>
	<path fill-rule="evenodd" clip-rule="evenodd" fill="#FFFFFF" d="M17.869,20.393c0.1,0.038,0.244,0.014,0.35-0.026
		c0.768-0.292,1.479-0.683,2.096-1.23c1.082-0.962,1.907-2.085,2.182-3.544c0.215-1.141-0.514-2.456-1.58-2.873
		c-1.085-0.425-2.222-0.013-2.909,1.08c-0.066-0.095-0.117-0.17-0.171-0.241c-0.781-1.03-2.065-1.296-3.101-0.644
		c-1.068,0.674-1.535,2.01-1.074,3.284C14.403,18.245,15.842,19.624,17.869,20.393z"/>
	<path fill-rule="evenodd" clip-rule="evenodd" fill="#FFFFFF" d="M18,0C8.059,0,0,8.059,0,18s8.059,18,18,18s18-8.059,18-18
		S27.941,0,18,0z M9.463,13.086c2.065-2.191,4.6-3.436,7.615-3.673c0.133-0.011,0.265-0.024,0.407-0.039c0-1.032,0-2.035,0-3.07
		c-0.997,0-1.978,0-2.984,0c0-0.353,0-0.673,0-1.011c2.332,0,4.65,0,6.996,0c0,0.324,0,0.644,0,1c-0.983,0-1.962,0-2.963,0
		c0,1.04,0,2.042,0,3.054c0.614,0.089,1.232,0.15,1.839,0.272c2.438,0.491,4.502,1.659,6.197,3.482
		c1.425,1.531,2.345,3.317,2.775,5.359c0.309,1.463,0.277,2.946,0.255,4.453c-7.723,0-15.431,0-23.16,0
		C6.165,19.232,6.854,15.856,9.463,13.086z M30.078,25.925c-8.051,0-16.095,0-24.157,0c0-0.317,0-0.618,0-0.948
		c8.047,0,16.081,0,24.157,0C30.078,25.295,30.078,25.596,30.078,25.925z"/>
</g>
<path fill-rule="evenodd" clip-rule="evenodd" d="M263.041-56.126c0,1.043,0,2.087,0,3.13c-0.106,0.001-0.212,0.002-0.318,0.004
	c0-1.053,0-2.105,0-3.158C262.829-56.142,262.935-56.134,263.041-56.126z"/>
</svg>
